<?xml version="1.0" encoding="utf-8"?>
<svg version="1.1" id="Layer1" xmlns="http://www.w3.org/2000/svg" xmlns:xlink="http://www.w3.org/1999/xlink" x="0px" y="0px"
	 viewBox="0 0 258.7 258.7" enable-background="new 0 0 258.7 258.7" xml:space="preserve">
<g>
	<polygon fill="#63BFDC" points="110.5,106.8 57.5,99.4 96.8,26.8 	"/>
	<linearGradient id="SVGID_1_" gradientUnits="userSpaceOnUse" x1="96.7951" y1="61.4777" x2="137.9435" y2="61.4777">
		<stop  offset="0" style="stop-color:#036EB7"/>
		<stop  offset="1" style="stop-color:#036EB7"/>
	</linearGradient>
	<polygon fill="url(#SVGID_1_)" points="96.8,26.8 137.9,81.7 108.6,96.2 	"/>
	<polygon fill="#4BACCF" points="118.6,64.9 125,130.4 144.5,122.1 	"/>
	<polygon fill="#8CCDE3" points="118.6,64.9 136.5,73.3 147.8,90.2 141.1,114.6 	"/>
	<polyline fill="#63BFDC" points="114.4,211.4 150.7,79.8 227.8,209.7 211.8,215.2 193.4,218.4 	"/>
	<polygon fill="#4BACCF" points="84.2,62.3 67.5,72.2 45.1,120.8 80.6,97.7 85.1,109.1 84.7,80 	"/>
	<polygon fill="#074F83" points="84.2,62.3 91.2,88.8 95.7,105 91.2,109.7 88.4,117.5 85.1,109.1 	"/>
	<polygon fill="#63BFDC" points="80.6,97.7 36.1,126.7 8.7,211.4 69.4,147.5 71.9,117 	"/>
	<polyline fill="#8CCDE3" points="80.6,97.7 88.4,117.5 59,214.5 8.7,211.4 	"/>
	<polygon fill="#4BACCF" points="120.7,88.8 91.6,106.6 54.9,225.6 118.1,117 114.6,103.1 	"/>
	<polygon fill="#0F75AD" points="120.7,88.8 54.9,225.6 71.5,230.2 101.4,228.4 129.6,122.5 	"/>
	<polygon fill="#2B9CC5" points="133.2,109.1 101.4,228.4 110.1,231.9 154.9,225.3 177.8,220.4 	"/>
	<polygon fill="#074F83" points="133.2,109.1 177.8,220.4 193.4,218.4 	"/>
	<polygon fill="#074F83" points="150.7,79.8 227.8,209.7 250,207.2 	"/>
</g>
</svg>
